G04 #@! TF.GenerationSoftware,KiCad,Pcbnew,7.0.6*
G04 #@! TF.CreationDate,2023-12-18T16:30:00+01:00*
G04 #@! TF.ProjectId,SMD-Transistor-Blinker,534d442d-5472-4616-9e73-6973746f722d,rev?*
G04 #@! TF.SameCoordinates,Original*
G04 #@! TF.FileFunction,Copper,L1,Top*
G04 #@! TF.FilePolarity,Positive*
%FSLAX46Y46*%
G04 Gerber Fmt 4.6, Leading zero omitted, Abs format (unit mm)*
G04 Created by KiCad (PCBNEW 7.0.6) date 2023-12-18 16:30:00*
%MOMM*%
%LPD*%
G01*
G04 APERTURE LIST*
G04 Aperture macros list*
%AMRoundRect*
0 Rectangle with rounded corners*
0 $1 Rounding radius*
0 $2 $3 $4 $5 $6 $7 $8 $9 X,Y pos of 4 corners*
0 Add a 4 corners polygon primitive as box body*
4,1,4,$2,$3,$4,$5,$6,$7,$8,$9,$2,$3,0*
0 Add four circle primitives for the rounded corners*
1,1,$1+$1,$2,$3*
1,1,$1+$1,$4,$5*
1,1,$1+$1,$6,$7*
1,1,$1+$1,$8,$9*
0 Add four rect primitives between the rounded corners*
20,1,$1+$1,$2,$3,$4,$5,0*
20,1,$1+$1,$4,$5,$6,$7,0*
20,1,$1+$1,$6,$7,$8,$9,0*
20,1,$1+$1,$8,$9,$2,$3,0*%
G04 Aperture macros list end*
G04 #@! TA.AperFunction,SMDPad,CuDef*
%ADD10RoundRect,0.250000X-0.412500X-0.650000X0.412500X-0.650000X0.412500X0.650000X-0.412500X0.650000X0*%
G04 #@! TD*
G04 #@! TA.AperFunction,SMDPad,CuDef*
%ADD11RoundRect,0.250000X-0.450000X0.350000X-0.450000X-0.350000X0.450000X-0.350000X0.450000X0.350000X0*%
G04 #@! TD*
G04 #@! TA.AperFunction,SMDPad,CuDef*
%ADD12RoundRect,0.250000X0.450000X-0.325000X0.450000X0.325000X-0.450000X0.325000X-0.450000X-0.325000X0*%
G04 #@! TD*
G04 #@! TA.AperFunction,SMDPad,CuDef*
%ADD13RoundRect,0.150000X-0.150000X0.587500X-0.150000X-0.587500X0.150000X-0.587500X0.150000X0.587500X0*%
G04 #@! TD*
G04 #@! TA.AperFunction,SMDPad,CuDef*
%ADD14RoundRect,0.150000X0.150000X-0.587500X0.150000X0.587500X-0.150000X0.587500X-0.150000X-0.587500X0*%
G04 #@! TD*
G04 #@! TA.AperFunction,ComponentPad*
%ADD15R,1.700000X1.700000*%
G04 #@! TD*
G04 #@! TA.AperFunction,ComponentPad*
%ADD16O,1.700000X1.700000*%
G04 #@! TD*
G04 #@! TA.AperFunction,ViaPad*
%ADD17C,2.000000*%
G04 #@! TD*
G04 #@! TA.AperFunction,Conductor*
%ADD18C,0.500000*%
G04 #@! TD*
G04 #@! TA.AperFunction,Conductor*
%ADD19C,0.600000*%
G04 #@! TD*
G04 #@! TA.AperFunction,Conductor*
%ADD20C,0.800000*%
G04 #@! TD*
G04 APERTURE END LIST*
D10*
G04 #@! TO.P,C2,1*
G04 #@! TO.N,Net-(Q2-B)*
X143605068Y-69850000D03*
G04 #@! TO.P,C2,2*
G04 #@! TO.N,Net-(D1-K)*
X146730068Y-69850000D03*
G04 #@! TD*
G04 #@! TO.P,C1,1*
G04 #@! TO.N,Net-(D2-K)*
X137100000Y-69850000D03*
G04 #@! TO.P,C1,2*
G04 #@! TO.N,Net-(Q1-B)*
X140225000Y-69850000D03*
G04 #@! TD*
D11*
G04 #@! TO.P,R3,1*
G04 #@! TO.N,+12V*
X144272000Y-65040000D03*
G04 #@! TO.P,R3,2*
G04 #@! TO.N,Net-(Q2-B)*
X144272000Y-67040000D03*
G04 #@! TD*
G04 #@! TO.P,R4,1*
G04 #@! TO.N,+12V*
X148844000Y-65056000D03*
G04 #@! TO.P,R4,2*
G04 #@! TO.N,Net-(D1-A)*
X148844000Y-67056000D03*
G04 #@! TD*
D12*
G04 #@! TO.P,D2,1,K*
G04 #@! TO.N,Net-(D2-K)*
X135128000Y-72670000D03*
G04 #@! TO.P,D2,2,A*
G04 #@! TO.N,Net-(D2-A)*
X135128000Y-70620000D03*
G04 #@! TD*
D13*
G04 #@! TO.P,Q2,1,B*
G04 #@! TO.N,Net-(Q2-B)*
X139634000Y-73738500D03*
G04 #@! TO.P,Q2,2,E*
G04 #@! TO.N,GND*
X137734000Y-73738500D03*
G04 #@! TO.P,Q2,3,C*
G04 #@! TO.N,Net-(D2-K)*
X138684000Y-75613500D03*
G04 #@! TD*
D11*
G04 #@! TO.P,R1,1*
G04 #@! TO.N,+12V*
X135128000Y-65048000D03*
G04 #@! TO.P,R1,2*
G04 #@! TO.N,Net-(D2-A)*
X135128000Y-67048000D03*
G04 #@! TD*
G04 #@! TO.P,R2,1*
G04 #@! TO.N,+12V*
X139700000Y-65040000D03*
G04 #@! TO.P,R2,2*
G04 #@! TO.N,Net-(Q1-B)*
X139700000Y-67040000D03*
G04 #@! TD*
D14*
G04 #@! TO.P,Q1,1,B*
G04 #@! TO.N,Net-(Q1-B)*
X144526000Y-74930000D03*
G04 #@! TO.P,Q1,2,E*
G04 #@! TO.N,GND*
X146426000Y-74930000D03*
G04 #@! TO.P,Q1,3,C*
G04 #@! TO.N,Net-(D1-K)*
X145476000Y-73055000D03*
G04 #@! TD*
D12*
G04 #@! TO.P,D1,1,K*
G04 #@! TO.N,Net-(D1-K)*
X148844000Y-72399000D03*
G04 #@! TO.P,D1,2,A*
G04 #@! TO.N,Net-(D1-A)*
X148844000Y-70349000D03*
G04 #@! TD*
D15*
G04 #@! TO.P,J1,1,Pin_1*
G04 #@! TO.N,+12V*
X151384000Y-76200000D03*
D16*
G04 #@! TO.P,J1,2,Pin_2*
G04 #@! TO.N,GND*
X148844000Y-76200000D03*
G04 #@! TD*
D17*
G04 #@! TO.N,Net-(Q2-B)*
X141986000Y-67310000D03*
X141986000Y-74676000D03*
G04 #@! TD*
D18*
G04 #@! TO.N,Net-(D1-K)*
X146342500Y-72097500D02*
X146304000Y-72136000D01*
X146342500Y-69850000D02*
X146342500Y-72097500D01*
G04 #@! TO.N,Net-(Q2-B)*
X144272000Y-68795500D02*
X144272000Y-67040000D01*
X143217500Y-69850000D02*
X144272000Y-68795500D01*
G04 #@! TO.N,Net-(D2-K)*
X137100000Y-72076000D02*
X137160000Y-72136000D01*
X137100000Y-69850000D02*
X137100000Y-72076000D01*
G04 #@! TO.N,Net-(Q1-B)*
X141478000Y-72390000D02*
X139700000Y-70612000D01*
X144526000Y-74930000D02*
X144526000Y-73406000D01*
X143510000Y-72390000D02*
X141478000Y-72390000D01*
X139700000Y-70358000D02*
X139700000Y-67040000D01*
X139700000Y-70612000D02*
X139700000Y-70358000D01*
X144526000Y-73406000D02*
X143510000Y-72390000D01*
D19*
G04 #@! TO.N,GND*
X146426000Y-74930000D02*
X146426000Y-77470000D01*
D20*
X138430000Y-77470000D02*
X147574000Y-77470000D01*
X147574000Y-77470000D02*
X148844000Y-76200000D01*
D19*
X137734000Y-76774000D02*
X138430000Y-77470000D01*
X137734000Y-73738500D02*
X137734000Y-76774000D01*
D18*
G04 #@! TO.N,Net-(D1-K)*
X145476000Y-72456000D02*
X145796000Y-72136000D01*
X145796000Y-72136000D02*
X146304000Y-72136000D01*
X146304000Y-72136000D02*
X148581000Y-72136000D01*
X148581000Y-72136000D02*
X148844000Y-72399000D01*
X145476000Y-73055000D02*
X145476000Y-72456000D01*
G04 #@! TO.N,Net-(Q2-B)*
X140462000Y-74676000D02*
X139634000Y-73848000D01*
X141986000Y-74676000D02*
X140462000Y-74676000D01*
X139634000Y-73848000D02*
X139634000Y-73738500D01*
X142256000Y-67040000D02*
X144272000Y-67040000D01*
X141986000Y-67310000D02*
X142256000Y-67040000D01*
G04 #@! TO.N,Net-(D2-K)*
X138684000Y-75613500D02*
X138684000Y-72644000D01*
X135154000Y-72644000D02*
X135128000Y-72670000D01*
X137668000Y-72136000D02*
X136906000Y-72136000D01*
X136906000Y-72136000D02*
X136398000Y-72644000D01*
X136398000Y-72644000D02*
X135154000Y-72644000D01*
X138684000Y-72644000D02*
X138176000Y-72136000D01*
X138176000Y-72136000D02*
X137668000Y-72136000D01*
G04 #@! TO.N,Net-(D1-A)*
X148844000Y-70349000D02*
X148844000Y-67056000D01*
G04 #@! TO.N,Net-(D2-A)*
X135128000Y-67048000D02*
X135128000Y-70620000D01*
D20*
G04 #@! TO.N,+12V*
X135136000Y-65040000D02*
X135128000Y-65048000D01*
X139700000Y-65040000D02*
X135136000Y-65040000D01*
X150400000Y-65056000D02*
X148844000Y-65056000D01*
X144288000Y-65056000D02*
X144272000Y-65040000D01*
X151384000Y-76200000D02*
X151384000Y-66040000D01*
X148844000Y-65056000D02*
X144288000Y-65056000D01*
X144272000Y-65040000D02*
X139700000Y-65040000D01*
X148828000Y-65040000D02*
X148844000Y-65056000D01*
X151384000Y-66040000D02*
X150400000Y-65056000D01*
G04 #@! TD*
M02*
